<svg width="21" height="21" viewBox="0 0 21 21" fill="none" xmlns="http://www.w3.org/2000/svg">
<path d="M9.60316 2.45697C9.96998 1.71372 11.0298 1.71372 11.3966 2.45697L13.2062 6.12345C13.3518 6.4186 13.6334 6.62317 13.9591 6.67049L18.0053 7.25844C18.8255 7.37763 19.153 8.3856 18.5595 8.96414L15.6317 11.8181C15.396 12.0479 15.2884 12.3789 15.3441 12.7032L16.0352 16.7331C16.1753 17.55 15.3179 18.173 14.5843 17.7873L10.9652 15.8846C10.6739 15.7315 10.3259 15.7315 10.0346 15.8846L6.41552 17.7873C5.68189 18.173 4.82446 17.55 4.96457 16.7331L5.65575 12.7032C5.71138 12.3789 5.60383 12.0479 5.36815 11.8181L2.44028 8.96414C1.84677 8.3856 2.17428 7.37763 2.9945 7.25844L7.04071 6.67049C7.36642 6.62317 7.64798 6.4186 7.79364 6.12345L9.60316 2.45697Z" fill="#FFAC30"/>
</svg>
